<?xml version="1.0" encoding="UTF-8" standalone="no"?>
<!-- Created with Inkscape (http://www.inkscape.org/) -->

<svg
   xmlns:dc="http://purl.org/dc/elements/1.1/"
   xmlns:cc="http://creativecommons.org/ns#"
   xmlns:rdf="http://www.w3.org/1999/02/22-rdf-syntax-ns#"
   xmlns:svg="http://www.w3.org/2000/svg"
   xmlns="http://www.w3.org/2000/svg"
   xmlns:sodipodi="http://sodipodi.sourceforge.net/DTD/sodipodi-0.dtd"
   xmlns:inkscape="http://www.inkscape.org/namespaces/inkscape"
   version="1.1"
   width="180"
   height="90"
   viewBox="0 0 180 90"
   id="Layer_1"
   xml:space="preserve"
   inkscape:version="0.47 r22583"
   sodipodi:docname="mountains.svg"><metadata
   id="metadata11"><rdf:RDF><cc:Work
       rdf:about=""><dc:format>image/svg+xml</dc:format><dc:type
         rdf:resource="http://purl.org/dc/dcmitype/StillImage" /></cc:Work></rdf:RDF></metadata><sodipodi:namedview
   pagecolor="#ffffff"
   bordercolor="#666666"
   borderopacity="1"
   objecttolerance="10"
   gridtolerance="10"
   guidetolerance="10"
   inkscape:pageopacity="0"
   inkscape:pageshadow="2"
   inkscape:window-width="1445"
   inkscape:window-height="1222"
   id="namedview9"
   showgrid="false"
   inkscape:zoom="5.2444444"
   inkscape:cx="45"
   inkscape:cy="22.5"
   inkscape:window-x="0"
   inkscape:window-y="0"
   inkscape:window-maximized="0"
   inkscape:current-layer="Layer_1"
   units="in" /><defs
   id="defs71"><inkscape:perspective
     sodipodi:type="inkscape:persp3d"
     inkscape:vp_x="0 : 22.5 : 1"
     inkscape:vp_y="0 : 1000 : 0"
     inkscape:vp_z="90 : 22.5 : 1"
     inkscape:persp3d-origin="45 : 15 : 1"
     id="perspective9" /></defs><path
   d="m 127.37811,29.5828 c 5.69569,-3.5462 7.94292,-10.7726 14.51455,-13.3814 1.95171,2.7336 4.65074,4.6606 6.9288,7.0436 3.59515,3.7538 6.43875,7.8402 9.89783,11.972 6.5004,7.7642 5.96995,6.9188 15.01098,12.7188 2.2398,1.4366 5.03024,2.7552 6.26973,5.2824 -5.37466,-3.4692 -9.37695,-5.186 -14.15206,-7.4862 -4.54125,-2.1856 -0.388,-0.3008 -4.32651,-2.9868 -2.4354,-1.6602 -2.26425,-1.9564 -4.45196,-4.3588 -5.34064,-5.8656 -9.21111,-12.9048 -15.8327,-17.2566 -2.24086,1.466 -4.65711,3.8662 -6.5982,6.34 -1.64344,2.0936 -5.29599,4.8558 -3.62917,8.099 3.92363,-2.6328 6.52698,-8.511 9.89571,-10.5648 2.19833,3.4134 -0.41246,6.3752 -0.65802,9.1566 -0.0989,1.0984 0.68991,2.1754 0.65802,3.1682 -0.0585,1.9212 -2.39181,3.595 -0.98543,5.6354 -0.79301,0.2178 -1.55733,0.108 -2.97222,0.3518 9.2377,9.8578 -1.29051,0.7978 9.30467,9.2076 -14.54645,-5.3664 -1.98892,0.3542 -13.2655,-8.504 C 127.37492,38.7894 127.02199,35.705 123.09199,30.284 115.87404,20.9788 108.51365,12.4338 102.01113,5.1689995 98.527591,8.1455995 94.140485,12.4532 90.761125,16.5532 86.500519,21.7188 83.518733,28.3618 79.214541,33.8076 74.884839,39.2898 71.384295,45.042 67.338419,50.3584 c -1.516936,7.2422 -7.619766,10.3572 -12.20566,15.145 -0.82916,0.867 -1.148066,2.3092 -1.979352,3.166 -1.31709,1.3628 -3.35172,2.5862 -4.948386,4.2282 -5.12272,5.2688 -13.901184,12.435 -21.155272,15.8928 18.109704,-15.2958 37.35472,-37.0714 49.459392,-58.7752 -3.44314,-3.9548 -7.328498,-5.3346 -10.489936,-9.589 -6.083696,1.877 -9.801096,7.0436 -13.525938,11.9732 -2.01337,2.6644 -4.329704,4.648 -6.268662,7.0424 C 40.246149,46.8282 35.615609,53.5076 28.081947,58.4586 20.871445,63.1964 9.6894779,66.839 -4.7839997e-7,71.5324 1.4797312,68.539 7.1148299,65.1878 9.6097509,64.0916 17.863082,60.4672 25.561513,57.688 32.371255,51.415 c 3.72059,-3.4282 6.473826,-7.9674 9.895706,-11.6214 1.79545,-1.9156 3.698266,-3.7062 5.280048,-5.633 3.850278,-4.705 6.104956,-9.5788 11.127752,-14.1146 1.13106,-1.0224 5.22477,-4.9124 6.35583,-4.9034 0,0 11.444534,9.2848 13.523812,11.2696 4.083082,-2.273 6.36965,-7.4522 9.241944,-10.8282 C 93.369791,9.0385995 97.831309,5.0213995 101.97711,-5.2160004e-7 102.13019,0.08799948 120.6853,18.859 127.37811,29.5828 z"
   id="path1"
   style="fill-rule:evenodd" /><path
   d="m 101.81978,10.2142 c -0.88562,3.6576 1.55199,9.0588 -1.32524,11.4088 -4.425855,2.9358 -7.182779,8.1556 -7.897569,13.5952 -3.057166,1.0764 -6.976828,4.0444 -6.2305,7.9558 1.577148,2.3248 2.158336,8.1016 5.551652,5.6532 3.99721,-1.0558 6.983716,-5.486 5.921032,-9.8698 -0.997448,-4.3906 4.915705,-5.113 4.659645,-9.5352 0.0604,-3.2198 2.78602,-5.4278 4.9786,-2.3634 1.89109,2.4552 5.42834,4.5306 2.34859,7.6466 -0.9204,3.5636 -5.66933,4.2648 -6.30023,8.6074 -0.84141,3.9678 -4.041191,6.632 -5.839755,9.5074 -1.252214,3.2058 -0.205548,7.2022 -0.1174,9.9326 -3.067614,1.9596 -3.005428,7.3816 -4.814454,9.0506 -3.67896,0.4658 -4.92353,-6.2192 -7.294246,-5.666 -1.552242,1.3706 -2.505584,7.3494 -3.972942,2.965 -1.93544,-4.0894 -1.441176,-9.0444 0.300102,-13.1062 -3.689112,-0.6924 -3.09334,4.4572 -4.856326,6.4962 -1.880374,2.2054 -4.575038,3.8088 -3.728668,7.2368 -2.984742,0.8696 -6.734034,0.6072 -8.10034,4.2734 C 60.377389,80.1974 54.702467,85.5534 48.495229,90 c 3.533658,-6.6744 8.88816,-11.98 12.622366,-18.5106 -2.510918,-1.2488 -7.828534,2.4304 -8.063392,1.5702 5.560648,-5.9344 11.088956,-12.061 15.497514,-19.0188 5.799782,-11.6358 14.403858,-21.3186 20.432202,-32.806 2.545276,-5.3424 8.082482,-7.4272 12.202301,-11.0206 0.21119,0 0.42237,0 0.63356,0 z"
   id="path2"
   style="fill-rule:evenodd" /><path
   d="m 65.359067,23.5968 c -0.686408,4.827 -4.822332,7.7114 -6.597138,11.9732 2.474734,2.628 -1.084138,5.0854 -1.414622,7.6936 -0.146,3.3202 2.213592,6.626 0.609816,9.8836 -1.643724,0.4062 -3.915354,-4.583 -6.172412,-2.5534 -3.08979,3.3796 -1.726638,9.398 -5.520514,12.2316 -2.950766,0.4884 -1.179698,5.2852 -3.9983,6.1992 -1.741686,-1.7886 -1.18532,-5.5256 -2.000694,-6.9388 -7.060426,2.2334 -11.117254,9.2832 -16.486494,14.1046 -1.599268,0.6976 0.918742,-2.7702 1.31823,-3.5786 1.136662,-3.1132 -3.327086,0.6128 -4.570176,1.1846 -1.571781,0.9802 -4.616766,2.9774 -5.630068,2.5304 2.501925,-3.3288 7.021586,-4.4218 8.897008,-8.3576 -5.361614,0.465 -9.878559,4.776 -15.3607213,4.4234 9.3648323,-6.2632 20.6606573,-9.147 28.7846053,-17.4892 5.669982,-5.4188 10.147436,-12.0238 14.950908,-18.2712 2.687466,-3.0838 5.590256,-5.982 7.75987,-9.5308 1.304928,-1.8732 3.20261,-3.3058 5.430702,-3.5046 z"
   id="path3"
   style="fill-rule:evenodd" />




</svg>